<?xml version="1.0" encoding="UTF-8"?>
<!DOCTYPE svg PUBLIC "-//W3C//DTD SVG 1.1//EN" "http://www.w3.org/Graphics/SVG/1.1/DTD/svg11.dtd">
<svg xmlns="http://www.w3.org/2000/svg" version="1.1" width="256px" height="256px" style="shape-rendering:geometricPrecision; text-rendering:geometricPrecision; image-rendering:optimizeQuality; fill-rule:evenodd; clip-rule:evenodd" xmlns:xlink="http://www.w3.org/1999/xlink">
<g><path style="opacity:0.947" fill="#f5c000" d="M 30.5,-0.5 C 105.167,-0.5 179.833,-0.5 254.5,-0.5C 254.5,0.166667 254.833,0.5 255.5,0.5C 255.5,75.1667 255.5,149.833 255.5,224.5C 250.938,240.062 240.938,250.396 225.5,255.5C 160.167,255.5 94.8333,255.5 29.5,255.5C 14.0619,250.396 4.06186,240.062 -0.5,224.5C -0.5,159.833 -0.5,95.1667 -0.5,30.5C 4.16667,14.5 14.5,4.16667 30.5,-0.5 Z"/></g>
<g><path style="opacity:1" fill="#ffe100" d="M 33.5,7.5 C 32.8333,7.5 32.1667,7.5 31.5,7.5C 30.7611,7.63101 30.0944,7.46434 29.5,7C 30.5,6.66667 31.5,6.33333 32.5,6C 86.1667,5.33333 139.833,5.33333 193.5,6C 139.998,6.1672 86.6651,6.6672 33.5,7.5 Z"/></g>
<g><path style="opacity:1" fill="#846700" d="M 213.5,6.5 C 220.648,5.50837 227.981,5.17503 235.5,5.5C 235.5,6.5 235.5,7.5 235.5,8.5C 237.735,8.20528 239.735,8.53862 241.5,9.5C 239.167,9.5 236.833,9.5 234.5,9.5C 234.5,8.5 234.5,7.5 234.5,6.5C 227.5,6.5 220.5,6.5 213.5,6.5 Z"/></g>
<g><path style="opacity:1" fill="#080500" d="M 213.5,6.5 C 220.5,6.5 227.5,6.5 234.5,6.5C 234.5,7.5 234.5,8.5 234.5,9.5C 236.833,9.5 239.167,9.5 241.5,9.5C 241.5,10.5 241.5,11.5 241.5,12.5C 243.5,12.5 245.5,12.5 247.5,12.5C 247.5,19.5 247.5,26.5 247.5,33.5C 246.5,33.5 245.5,33.5 244.5,33.5C 244.5,34.8333 244.5,36.1667 244.5,37.5C 242.5,37.5 240.5,37.5 238.5,37.5C 238.5,41.5 238.5,45.5 238.5,49.5C 237.5,49.5 236.5,49.5 235.5,49.5C 235.5,48.5 235.5,47.5 235.5,46.5C 234.5,46.5 233.5,46.5 232.5,46.5C 232.5,45.5 232.5,44.5 232.5,43.5C 231.167,43.5 229.833,43.5 228.5,43.5C 228.5,44.5 228.5,45.5 228.5,46.5C 227.5,46.5 226.5,46.5 225.5,46.5C 225.5,47.5 225.5,48.5 225.5,49.5C 224.5,49.5 223.5,49.5 222.5,49.5C 222.5,47.5 222.5,45.5 222.5,43.5C 221.5,43.5 220.5,43.5 219.5,43.5C 219.5,45.5 219.5,47.5 219.5,49.5C 218.5,49.5 217.5,49.5 216.5,49.5C 216.5,48.5 216.5,47.5 216.5,46.5C 215.5,46.5 214.5,46.5 213.5,46.5C 213.5,43.5 213.5,40.5 213.5,37.5C 211.735,36.5386 209.735,36.2053 207.5,36.5C 207.5,34.5 207.5,32.5 207.5,30.5C 206.5,30.5 205.5,30.5 204.5,30.5C 204.5,25.5 204.5,20.5 204.5,15.5C 205.5,15.5 206.5,15.5 207.5,15.5C 207.5,13.5 207.5,11.5 207.5,9.5C 209.5,9.5 211.5,9.5 213.5,9.5C 213.5,8.5 213.5,7.5 213.5,6.5 Z"/></g>
<g><path style="opacity:1" fill="#020101" d="M 31.5,7.5 C 32.1667,7.5 32.8333,7.5 33.5,7.5C 86.8333,7.5 140.167,7.5 193.5,7.5C 193.333,21.1707 193.5,34.8374 194,48.5C 194.786,51.5827 196.619,53.7494 199.5,55C 215.497,55.4999 231.497,55.6666 247.5,55.5C 247.667,111.168 247.5,166.834 247,222.5C 244.27,235.563 236.437,243.73 223.5,247C 158.833,247.667 94.1667,247.667 29.5,247C 18.5726,243.073 11.4059,235.573 8,224.5C 7.33333,159.5 7.33333,94.5 8,29.5C 12.2116,18.1164 20.0449,10.7831 31.5,7.5 Z"/></g>
<g><path style="opacity:1" fill="#f3c200" d="M 210.5,21.5 C 213.5,21.5 216.5,21.5 219.5,21.5C 219.5,24.8333 219.5,28.1667 219.5,31.5C 217.5,31.5 215.5,31.5 213.5,31.5C 213.5,30.1667 213.5,28.8333 213.5,27.5C 212.5,27.5 211.5,27.5 210.5,27.5C 210.5,25.5 210.5,23.5 210.5,21.5 Z"/></g>
<g><path style="opacity:1" fill="#ddb100" d="M 231.5,21.5 C 234.833,21.5 238.167,21.5 241.5,21.5C 241.5,23.5 241.5,25.5 241.5,27.5C 240.5,27.5 239.5,27.5 238.5,27.5C 238.5,28.8333 238.5,30.1667 238.5,31.5C 236.208,31.7564 234.041,31.4231 232,30.5C 231.502,27.5184 231.335,24.5184 231.5,21.5 Z"/></g>
<g><path style="opacity:1" fill="#959502" d="M 33.5,28.5 C 35.0174,28.5106 36.1841,29.1772 37,30.5C 37.3333,30.1667 37.6667,29.8333 38,29.5C 38.1294,32.0027 39.1294,34.0027 41,35.5C 42.0726,33.4534 43.2393,31.4534 44.5,29.5C 45.7681,31.3043 46.4348,33.3043 46.5,35.5C 43.5176,35.9629 40.5176,36.2962 37.5,36.5C 37.6567,35.1266 37.49,33.7932 37,32.5C 32.7265,37.0458 31.5599,35.7124 33.5,28.5 Z"/></g>
<g><path style="opacity:1" fill="#929102" d="M 52.5,28.5 C 54.6133,29.2563 56.6133,29.4229 58.5,29C 59.3567,29.6891 60.0233,30.5224 60.5,31.5C 59.1667,32.8333 59.1667,34.1667 60.5,35.5C 59.6446,36.293 58.8113,35.9597 58,34.5C 56.2458,36.25 54.0792,36.9167 51.5,36.5C 51.7683,29.1778 50.935,28.8445 49,35.5C 48.1667,33.8333 47.3333,32.1667 46.5,30.5C 48.482,30.5478 50.482,29.8811 52.5,28.5 Z"/></g>
<g><path style="opacity:1" fill="#9f9f00" d="M 102.5,34.5 C 101.316,36.4099 99.816,36.7432 98,35.5C 97.3333,33.5 97.3333,31.5 98,29.5C 98.8854,36.0784 100.052,36.0784 101.5,29.5C 102.906,30.6682 104.072,30.3348 105,28.5C 105.617,29.4491 105.451,30.2825 104.5,31C 105.333,31.8333 106.167,32.6667 107,33.5C 106.001,30.4957 107.168,29.329 110.5,30C 108.009,30.6259 108.009,31.4593 110.5,32.5C 107.972,33.8159 107.972,34.9826 110.5,36C 108.426,35.7727 106.426,35.9394 104.5,36.5C 103.478,36.1445 102.811,35.4778 102.5,34.5 Z"/></g>
<g><path style="opacity:1" fill="#a7a700" d="M 168.5,28.5 C 172.335,29.0035 172.335,30.0035 168.5,31.5C 169.025,32.1924 169.692,32.6924 170.5,33C 169.151,33.7724 168.318,34.9391 168,36.5C 167.278,33.7395 167.445,31.0728 168.5,28.5 Z"/></g>
<g><path style="opacity:1" fill="#0e0d00" d="M 52.5,31.5 C 54.1764,30.2897 55.5097,30.7897 56.5,33C 55.4071,34.3654 54.0738,34.6987 52.5,34C 55.1125,32.9288 55.1125,32.0955 52.5,31.5 Z"/></g>
<g><path style="opacity:1" fill="#919100" d="M 74.5,30.5 C 76.2027,31.6602 76.8693,30.9935 76.5,28.5C 78.3904,28.2965 79.8904,28.9632 81,30.5C 82.2408,28.5794 83.7408,28.246 85.5,29.5C 84.624,30.2508 83.624,30.7508 82.5,31C 83.5,32.6667 84.5,34.3333 85.5,36C 83.5665,36.7826 82.0665,36.2826 81,34.5C 79.2161,37.0026 77.5494,37.0026 76,34.5C 74,37.1667 72,37.1667 70,34.5C 69.6924,35.3081 69.1924,35.9747 68.5,36.5C 67.6733,34.838 66.5067,33.5046 65,32.5C 64.5172,33.448 64.3505,34.448 64.5,35.5C 63.5386,33.7354 63.2053,31.7354 63.5,29.5C 64.4822,30.1408 65.4822,30.8075 66.5,31.5C 68.5,30.5 70.5,29.5 72.5,28.5C 73.5223,28.8555 74.189,29.5222 74.5,30.5 Z"/></g>
<g><path style="opacity:1" fill="#000000" d="M 77.5,30.5 C 78.5862,30.62 79.2528,31.2867 79.5,32.5C 79.1667,33.1667 78.8333,33.8333 78.5,34.5C 77.5713,33.3112 77.238,31.9778 77.5,30.5 Z"/></g>
<g><path style="opacity:1" fill="#0b0901" d="M 74.5,30.5 C 74.5,31.8333 74.5,33.1667 74.5,34.5C 73.5,34.5 72.5,34.5 71.5,34.5C 71.5,33.1667 71.5,31.8333 71.5,30.5C 72.5,30.5 73.5,30.5 74.5,30.5 Z"/></g>
<g><path style="opacity:1" fill="#a8a800" d="M 19.5,29.5 C 21.0744,29.9371 22.2411,30.9371 23,32.5C 23.4828,31.552 23.6495,30.552 23.5,29.5C 25.46,30.1383 27.2933,30.1383 29,29.5C 29.0905,31.8762 28.5905,34.2095 27.5,36.5C 25.6338,28.7691 24.4672,28.7691 24,36.5C 23,35.1667 22,33.8333 21,32.5C 20.6667,33.5 20.3333,34.5 20,35.5C 19.5045,33.5273 19.3379,31.5273 19.5,29.5 Z"/></g>
<g><path style="opacity:1" fill="#b6b600" d="M 86.5,29.5 C 87.0082,31.8422 88.0082,34.0088 89.5,36C 88.552,36.4828 87.552,36.6495 86.5,36.5C 86.5,34.1667 86.5,31.8333 86.5,29.5 Z"/></g>
<g><path style="opacity:1" fill="#979700" d="M 91.5,28.5 C 93.5492,28.7058 93.8825,29.5391 92.5,31C 95.1047,32.9308 95.1047,34.7642 92.5,36.5C 89.9244,35.1166 90.2577,34.2833 93.5,34C 90.4188,33.009 89.7521,31.1757 91.5,28.5 Z"/></g>
<g><path style="opacity:1" fill="#444503" d="M 152.5,29.5 C 151.448,29.3505 150.448,29.5172 149.5,30C 150.109,31.9483 150.776,33.7816 151.5,35.5C 151.44,36.0431 151.107,36.3764 150.5,36.5C 149.824,35.3984 149.158,34.3984 148.5,33.5C 148.567,32.0413 148.234,30.7079 147.5,29.5C 149.284,28.2801 150.95,28.2801 152.5,29.5 Z"/></g>
<g><path style="opacity:1" fill="#b5b500" d="M 152.5,29.5 C 151.659,31.3792 151.325,33.3792 151.5,35.5C 150.776,33.7816 150.109,31.9483 149.5,30C 150.448,29.5172 151.448,29.3505 152.5,29.5 Z"/></g>
<g><path style="opacity:1" fill="#888802" d="M 176.5,28.5 C 178.117,29.038 179.784,29.3713 181.5,29.5C 181.351,30.552 181.517,31.552 182,32.5C 182.419,31.3279 183.085,30.3279 184,29.5C 185.115,30.9999 185.948,32.6666 186.5,34.5C 182.209,36.9619 178.042,36.9619 174,34.5C 173.667,35.1667 173.333,35.8333 173,36.5C 172.333,34.1667 172.333,31.8333 173,29.5C 174.217,31.6124 175.383,31.2791 176.5,28.5 Z"/></g>
<g><path style="opacity:1" fill="#010100" d="M 176.5,30.5 C 177.5,30.5 178.5,30.5 179.5,30.5C 179.5,31.8333 179.5,33.1667 179.5,34.5C 178.167,34.5 176.833,34.5 175.5,34.5C 175.433,33.0413 175.766,31.7079 176.5,30.5 Z"/></g>
<g><path style="opacity:1" fill="#b0b000" d="M 187.5,29.5 C 188.008,31.8422 189.008,34.0088 190.5,36C 189.552,36.4828 188.552,36.6495 187.5,36.5C 187.5,34.1667 187.5,31.8333 187.5,29.5 Z"/></g>
<g><path style="opacity:1" fill="#8d6e01" d="M 222.5,27.5 C 223.833,27.5 225.167,27.5 226.5,27.5C 226.5,28.5 226.5,29.5 226.5,30.5C 227.5,30.5 228.5,30.5 229.5,30.5C 229.5,31.8333 229.5,33.1667 229.5,34.5C 227.167,34.5 224.833,34.5 222.5,34.5C 222.5,32.1667 222.5,29.8333 222.5,27.5 Z"/></g>
<g><path style="opacity:1" fill="#515101" d="M 63.5,29.5 C 63.2053,31.7354 63.5386,33.7354 64.5,35.5C 64.44,36.0431 64.1067,36.3764 63.5,36.5C 62.2031,34.0268 62.2031,31.6934 63.5,29.5 Z"/></g>
<g><path style="opacity:1" fill="#8a8a00" d="M 147.5,29.5 C 148.234,30.7079 148.567,32.0413 148.5,33.5C 147.391,37.0289 145.558,37.3622 143,34.5C 142.692,35.3081 142.192,35.9747 141.5,36.5C 140.667,35.5 139.833,34.5 139,33.5C 137.755,37.4977 136.922,37.3311 136.5,33C 136.935,28.6229 138.101,28.4563 140,32.5C 140.249,31.376 140.749,30.376 141.5,29.5C 143.38,29.0702 145.38,29.0702 147.5,29.5 Z"/></g>
<g><path style="opacity:1" fill="#070700" d="M 144.5,30.5 C 146.912,30.6941 147.912,32.0274 147.5,34.5C 144.046,34.7332 143.046,33.3999 144.5,30.5 Z"/></g>
<g><path style="opacity:1" fill="#ffe000" d="M 223.5,28.5 C 225.048,28.8212 225.715,29.8212 225.5,31.5C 226.675,31.281 227.675,31.6143 228.5,32.5C 226.955,33.4519 225.288,33.7852 223.5,33.5C 223.5,31.8333 223.5,30.1667 223.5,28.5 Z"/></g>
<g><path style="opacity:1" fill="#0e0d00" d="M 102.5,34.5 C 102.443,30.8669 103.443,30.7002 105.5,34C 104.552,34.4828 103.552,34.6495 102.5,34.5 Z"/></g>
<g><path style="opacity:1" fill="#999901" d="M 125.5,28.5 C 127.39,28.2965 128.89,28.9632 130,30.5C 131.153,28.503 132.653,28.1696 134.5,29.5C 133.624,30.2508 132.624,30.7508 131.5,31C 134.028,32.0174 134.028,33.1841 131.5,34.5C 134.321,35.8418 134.154,36.5084 131,36.5C 129.635,36.1557 128.468,35.4891 127.5,34.5C 126.784,35.311 125.95,35.9777 125,36.5C 123.27,35.3507 121.604,35.3507 120,36.5C 119.918,33.9162 120.751,31.5828 122.5,29.5C 124.915,36.2134 125.915,35.8801 125.5,28.5 Z"/></g>
<g><path style="opacity:1" fill="#000000" d="M 126.5,30.5 C 128.337,30.6395 128.67,31.3061 127.5,32.5C 126.702,32.0431 126.369,31.3764 126.5,30.5 Z"/></g>
<g><path style="opacity:1" fill="#9b9b00" d="M 162.5,28.5 C 166.971,28.6724 167.304,29.5057 163.5,31C 164.167,31.6667 164.833,32.3333 165.5,33C 164.151,33.7724 163.318,34.9391 163,36.5C 162.667,35.8333 162.333,35.1667 162,34.5C 157.486,37.3408 155.486,36.0075 156,30.5C 158.33,28.9683 160.33,29.3017 162,31.5C 162.483,30.552 162.649,29.552 162.5,28.5 Z"/></g>
<g><path style="opacity:1" fill="#070700" d="M 157.5,30.5 C 158.5,30.5 159.5,30.5 160.5,30.5C 160.5,31.8333 160.5,33.1667 160.5,34.5C 159.5,34.5 158.5,34.5 157.5,34.5C 157.5,33.1667 157.5,31.8333 157.5,30.5 Z"/></g>
<g><path style="opacity:1" fill="#a3a302" d="M 15.5,29.5 C 17.9689,30.6067 18.9689,32.6067 18.5,35.5C 16.8561,35.2865 15.3561,35.6198 14,36.5C 14.1571,34.1693 14.6571,31.8359 15.5,29.5 Z"/></g>
<g><path style="opacity:1" fill="#7d6100" d="M 204.5,30.5 C 205.5,30.5 206.5,30.5 207.5,30.5C 207.5,32.5 207.5,34.5 207.5,36.5C 209.735,36.2053 211.735,36.5386 213.5,37.5C 211.167,37.5 208.833,37.5 206.5,37.5C 206.815,34.7892 206.148,32.4559 204.5,30.5 Z"/></g>
<g><path style="opacity:1" fill="#adad00" d="M 112.5,28.5 C 116.146,29.4615 117.313,31.7949 116,35.5C 114.667,36.8333 113.333,36.8333 112,35.5C 111.297,33.0709 111.463,30.7375 112.5,28.5 Z"/></g>
<g><path style="opacity:1" fill="#3d3c0b" d="M 112.5,30.5 C 114.912,30.6941 115.912,32.0274 115.5,34.5C 114.5,34.5 113.5,34.5 112.5,34.5C 112.5,33.1667 112.5,31.8333 112.5,30.5 Z"/></g>
<g><path style="opacity:1" fill="#e9e9e9" d="M 11.5,109.5 C 14.6852,109.02 17.5185,109.686 20,111.5C 20.2381,115.373 21.0714,119.04 22.5,122.5C 22.5938,124.912 21.5938,126.745 19.5,128C 16.854,128.497 14.1873,128.664 11.5,128.5C 11.5,122.167 11.5,115.833 11.5,109.5 Z"/></g>
<g><path style="opacity:1" fill="#e6e6e6" d="M 29.5,109.5 C 37.9863,109.151 41.8197,113.151 41,121.5C 39.1426,127.178 35.3093,129.345 29.5,128C 22.8805,121.835 22.8805,115.669 29.5,109.5 Z"/></g>
<g><path style="opacity:1" fill="#eaeaea" d="M 58.5,109.5 C 61.8984,109.18 65.2317,109.513 68.5,110.5C 65.9135,111.48 63.2469,111.813 60.5,111.5C 60.5,113.5 60.5,115.5 60.5,117.5C 62.924,117.192 65.2573,117.526 67.5,118.5C 67.2907,119.086 66.9574,119.586 66.5,120C 64.5273,120.495 62.5273,120.662 60.5,120.5C 60.5,122.5 60.5,124.5 60.5,126.5C 63.2469,126.187 65.9135,126.52 68.5,127.5C 65.2317,128.487 61.8984,128.82 58.5,128.5C 58.5,122.167 58.5,115.833 58.5,109.5 Z"/></g>
<g><path style="opacity:1" fill="#e3e3e3" d="M 71.5,109.5 C 72.4972,109.47 73.1639,109.97 73.5,111C 75.0335,115.232 76.7001,119.398 78.5,123.5C 80.9872,119.055 80.6538,114.721 77.5,110.5C 78.0016,109.479 78.6683,109.312 79.5,110C 80.4601,111.419 81.2935,112.919 82,114.5C 82.7393,112.779 83.5726,111.113 84.5,109.5C 84.8333,110.167 85.1667,110.833 85.5,111.5C 83.1487,115.417 82.9821,119.417 85,123.5C 87.2634,118.876 89.43,114.209 91.5,109.5C 91.8333,110 92.1667,110.5 92.5,111C 90.5636,117.032 88.2303,122.866 85.5,128.5C 84.081,126.664 82.9143,124.664 82,122.5C 80.8855,124 80.0521,125.667 79.5,127.5C 78.8333,128.833 78.1667,128.833 77.5,127.5C 74.8897,121.669 72.8897,115.669 71.5,109.5 Z"/></g>
<g><path style="opacity:1" fill="#f1f1f1" d="M 111.5,109.5 C 121.98,108.619 124.646,112.619 119.5,121.5C 120.5,123.5 121.5,125.5 122.5,127.5C 122.167,127.833 121.833,128.167 121.5,128.5C 119.724,126.462 118.057,124.296 116.5,122C 115.552,121.517 114.552,121.351 113.5,121.5C 113.808,123.924 113.474,126.257 112.5,128.5C 111.504,122.202 111.17,115.868 111.5,109.5 Z"/></g>
<g><path style="opacity:1" fill="#e5e5e5" d="M 157.5,109.5 C 159.017,109.511 160.184,110.177 161,111.5C 162.421,114.009 164.088,116.343 166,118.5C 167.689,115.109 169.856,112.109 172.5,109.5C 173.833,115.833 173.833,122.167 172.5,128.5C 171.672,123.868 171.172,119.202 171,114.5C 169.638,117.236 167.804,119.569 165.5,121.5C 163.507,119.334 161.673,117.001 160,114.5C 159.828,119.202 159.328,123.868 158.5,128.5C 157.504,122.202 157.17,115.868 157.5,109.5 Z"/></g>
<g><path style="opacity:1" fill="#e6e6e6" d="M 198.5,108.5 C 199.82,111.428 200.486,114.761 200.5,118.5C 200.167,121.833 199.833,125.167 199.5,128.5C 197.328,128.324 194.995,128.157 192.5,128C 188.346,123.601 188.679,119.601 193.5,116C 194.899,115.405 196.232,115.572 197.5,116.5C 198.48,113.914 198.813,111.247 198.5,108.5 Z"/></g>
<g><path style="opacity:1" fill="#e1e1e1" d="M 212.5,108.5 C 213.82,111.428 214.486,114.761 214.5,118.5C 214.167,121.833 213.833,125.167 213.5,128.5C 210.933,128.222 208.267,128.056 205.5,128C 201.399,123.706 201.732,119.706 206.5,116C 208.235,115.349 209.902,115.515 211.5,116.5C 212.48,113.914 212.813,111.247 212.5,108.5 Z"/></g>
<g><path style="opacity:1" fill="#c2c2c2" d="M 216.5,109.5 C 218.465,109.948 218.798,110.948 217.5,112.5C 216.614,111.675 216.281,110.675 216.5,109.5 Z"/></g>
<g><path style="opacity:1" fill="#e7e7e7" d="M 97.5,109.5 C 106.424,109.26 110.258,113.594 109,122.5C 104.827,129.62 99.827,130.287 94,124.5C 91.3214,118.558 92.4881,113.558 97.5,109.5 Z"/></g>
<g><path style="opacity:1" fill="#0a0a0a" d="M 13.5,111.5 C 17.5,110.833 19.1667,112.5 18.5,116.5C 16.8333,116.5 15.1667,116.5 13.5,116.5C 13.5,114.833 13.5,113.167 13.5,111.5 Z"/></g>
<g><path style="opacity:1" fill="#0c0c0c" d="M 30.5,111.5 C 38.1145,112.028 40.6145,116.028 38,123.5C 31.5918,128.307 27.7585,126.641 26.5,118.5C 26.974,115.689 28.3073,113.355 30.5,111.5 Z"/></g>
<g><path style="opacity:1" fill="#111111" d="M 98.5,111.5 C 105.091,111.594 107.924,114.927 107,121.5C 103,128.167 99,128.167 95,121.5C 94.1822,117.469 95.3489,114.136 98.5,111.5 Z"/></g>
<g><path style="opacity:1" fill="#121212" d="M 113.5,111.5 C 120.004,111.138 121.671,113.638 118.5,119C 116.866,119.494 115.199,119.66 113.5,119.5C 113.5,116.833 113.5,114.167 113.5,111.5 Z"/></g>
<g><path style="opacity:1" fill="#d0d0d0" d="M 43.5,109.5 C 47.5192,113.047 50.6859,117.38 53,122.5C 53.499,118.179 53.6657,113.846 53.5,109.5C 54.5,109.5 55.5,109.5 56.5,109.5C 56.8297,115.868 56.4963,122.202 55.5,128.5C 51.8565,124.56 48.6898,120.226 46,115.5C 45.8275,119.871 45.3275,124.204 44.5,128.5C 43.5037,122.202 43.1703,115.868 43.5,109.5 Z"/></g>
<g><path style="opacity:1" fill="#dcdcdc" d="M 179.5,115.5 C 187.894,116.963 189.56,121.129 184.5,128C 177.717,129.218 174.884,126.384 176,119.5C 177.376,118.295 178.542,116.962 179.5,115.5 Z"/></g>
<g><path style="opacity:1" fill="#e8e8e8" d="M 216.5,115.5 C 217.8,117.223 218.467,119.39 218.5,122C 218.167,124.167 217.833,126.333 217.5,128.5C 216.508,124.217 216.174,119.884 216.5,115.5 Z"/></g>
<g><path style="opacity:1" fill="#ececec" d="M 221.5,115.5 C 224.45,117.621 226.95,120.287 229,123.5C 229.182,120.774 229.682,118.107 230.5,115.5C 231.833,119.833 231.833,124.167 230.5,128.5C 228.105,126.056 225.938,123.39 224,120.5C 223.818,123.226 223.318,125.893 222.5,128.5C 221.508,124.217 221.174,119.884 221.5,115.5 Z"/></g>
<g><path style="opacity:1" fill="#e2e2e2" d="M 237.5,115.5 C 239.584,116.248 241.584,116.248 243.5,115.5C 244.663,120.802 244.829,126.136 244,131.5C 241.257,136.351 238.09,136.685 234.5,132.5C 234.833,132.167 235.167,131.833 235.5,131.5C 240.457,134.541 242.457,133.207 241.5,127.5C 236.637,129.162 233.97,127.329 233.5,122C 233.722,119.038 235.056,116.871 237.5,115.5 Z"/></g>
<g><path style="opacity:1" fill="#171717" d="M 179.5,118.5 C 182.571,117.925 184.571,119.091 185.5,122C 182.833,128 180.167,128 177.5,122C 177.978,120.697 178.645,119.531 179.5,118.5 Z"/></g>
<g><path style="opacity:1" fill="#121212" d="M 192.5,118.5 C 198.704,118.314 200.037,120.814 196.5,126C 194.633,126.711 193.133,126.211 192,124.5C 191.51,122.455 191.677,120.455 192.5,118.5 Z"/></g>
<g><path style="opacity:1" fill="#121212" d="M 206.5,118.5 C 212.488,118.664 213.821,121.164 210.5,126C 205.632,125.711 204.299,123.211 206.5,118.5 Z"/></g>
<g><path style="opacity:1" fill="#181818" d="M 237.5,118.5 C 240.127,118.293 241.793,119.46 242.5,122C 240.42,127.759 238.087,127.926 235.5,122.5C 235.752,120.927 236.418,119.594 237.5,118.5 Z"/></g>
<g><path style="opacity:1" fill="#0e0e0e" d="M 13.5,119.5 C 20.1904,118.331 21.8571,120.497 18.5,126C 16.8659,126.494 15.1992,126.66 13.5,126.5C 13.5,124.167 13.5,121.833 13.5,119.5 Z"/></g>
<g><path style="opacity:1" fill="#e5e5e5" d="M 124.5,109.5 C 126.237,112.008 127.07,115.008 127,118.5C 129.312,115.354 131.812,112.354 134.5,109.5C 134.833,110 135.167,110.5 135.5,111C 133.514,113.656 131.514,116.323 129.5,119C 130.977,121.445 132.81,123.612 135,125.5C 135.749,126.635 135.583,127.635 134.5,128.5C 131.812,125.646 129.312,122.646 127,119.5C 126.821,122.553 126.321,125.553 125.5,128.5C 124.504,122.202 124.17,115.868 124.5,109.5 Z"/></g>
<g><path style="opacity:1" fill="#e5e5e5" d="M 141.5,109.5 C 143.467,109.261 145.301,109.594 147,110.5C 147.688,111.332 147.521,111.998 146.5,112.5C 144.13,110.902 142.464,111.402 141.5,114C 143.271,116.487 145.438,118.654 148,120.5C 149.167,126.667 146.667,129.167 140.5,128C 138.579,126.759 138.246,125.259 139.5,123.5C 142.129,127.569 144.462,127.402 146.5,123C 144.686,120.504 142.52,118.337 140,116.5C 139.167,113.829 139.667,111.496 141.5,109.5 Z"/></g>
<g><path style="opacity:1" fill="#d7d7d7" d="M 105.5,130.5 C 112,129.499 114.5,132.165 113,138.5C 110.65,140.683 108.483,143.016 106.5,145.5C 108.743,146.474 111.076,146.808 113.5,146.5C 113.5,147.5 113.5,148.5 113.5,149.5C 110.167,149.5 106.833,149.5 103.5,149.5C 103.46,146.575 104.293,143.909 106,141.5C 108.705,140.245 110.538,138.245 111.5,135.5C 111.566,133.734 110.732,132.734 109,132.5C 107.04,133.292 105.54,134.625 104.5,136.5C 103.531,134.383 103.864,132.383 105.5,130.5 Z"/></g>
<g><path style="opacity:1" fill="#f6f6f6" d="M 134.5,130.5 C 135.805,132.397 136.471,134.731 136.5,137.5C 136.167,139.833 135.833,142.167 135.5,144.5C 134.507,139.88 134.173,135.214 134.5,130.5 Z"/></g>
<g><path style="opacity:1" fill="#f8f8f8" d="M 139.5,130.5 C 140.805,132.397 141.471,134.731 141.5,137.5C 141.167,139.833 140.833,142.167 140.5,144.5C 139.507,139.88 139.173,135.214 139.5,130.5 Z"/></g>
<g><path style="opacity:1" fill="#ededed" d="M 144.5,130.5 C 145.805,132.397 146.471,134.731 146.5,137.5C 146.167,139.833 145.833,142.167 145.5,144.5C 144.507,139.88 144.173,135.214 144.5,130.5 Z"/></g>
<g><path style="opacity:1" fill="#cfcfcf" d="M 149.5,130.5 C 150.805,132.397 151.471,134.731 151.5,137.5C 151.167,139.833 150.833,142.167 150.5,144.5C 149.507,139.88 149.173,135.214 149.5,130.5 Z"/></g>
<g><path style="opacity:1" fill="#d4d4d4" d="M 123.5,130.5 C 127.49,129.616 130.323,130.949 132,134.5C 132.667,137.833 132.667,141.167 132,144.5C 128.333,151.167 124.667,151.167 121,144.5C 119.806,139.369 120.639,134.702 123.5,130.5 Z"/></g>
<g><path style="opacity:1" fill="#101010" d="M 124.5,132.5 C 126.451,132.227 127.951,132.893 129,134.5C 129.667,138.167 129.667,141.833 129,145.5C 126.224,147.14 124.224,146.473 123,143.5C 122.112,139.598 122.612,135.931 124.5,132.5 Z"/></g>
<g><path style="opacity:1" fill="#cbcbcb" d="M 149.5,147.5 C 151.337,147.639 151.67,148.306 150.5,149.5C 149.702,149.043 149.369,148.376 149.5,147.5 Z"/></g>
<g><path style="opacity:1" fill="#cdcdcd" d="M 134.5,147.5 C 136.337,147.639 136.67,148.306 135.5,149.5C 134.702,149.043 134.369,148.376 134.5,147.5 Z"/></g>
<g><path style="opacity:1" fill="#cdcdcd" d="M 139.5,147.5 C 141.337,147.639 141.67,148.306 140.5,149.5C 139.702,149.043 139.369,148.376 139.5,147.5 Z"/></g>
<g><path style="opacity:1" fill="#c2c2c2" d="M 144.5,147.5 C 146.337,147.639 146.67,148.306 145.5,149.5C 144.702,149.043 144.369,148.376 144.5,147.5 Z"/></g>
<g><path style="opacity:1" fill="#dd0000" d="M 209.5,200.5 C 215.167,200.664 215.5,200.997 210.5,201.5C 210.5,202.5 210.5,203.5 210.5,204.5C 214.5,204.833 214.5,205.167 210.5,205.5C 210.5,206.5 210.5,207.5 210.5,208.5C 209.527,206.052 209.194,203.385 209.5,200.5 Z"/></g>
<g><path style="opacity:1" fill="#e80000" d="M 215.5,200.5 C 221.167,200.664 221.5,200.997 216.5,201.5C 216.5,202.5 216.5,203.5 216.5,204.5C 220.5,204.833 220.5,205.167 216.5,205.5C 216.657,206.873 216.49,208.207 216,209.5C 215.502,206.518 215.335,203.518 215.5,200.5 Z"/></g>
<g><path style="opacity:1" fill="#d30000" d="M 128.5,200.5 C 130.451,201.716 131.951,203.382 133,205.5C 133.333,203.833 133.667,202.167 134,200.5C 134.667,203.5 134.667,206.5 134,209.5C 132.907,207.651 131.574,205.984 130,204.5C 129.667,206.167 129.333,207.833 129,209.5C 128.502,206.518 128.335,203.518 128.5,200.5 Z"/></g>
<g><path style="opacity:1" fill="#c10001" d="M 153.5,200.5 C 155.199,200.34 156.866,200.506 158.5,201C 157.552,201.483 156.552,201.649 155.5,201.5C 155.36,203.124 156.027,204.29 157.5,205C 156.027,205.71 155.36,206.876 155.5,208.5C 156.552,208.351 157.552,208.517 158.5,209C 156.866,209.494 155.199,209.66 153.5,209.5C 153.5,206.5 153.5,203.5 153.5,200.5 Z"/></g>
<g><path style="opacity:1" fill="#420400" d="M 191.5,200.5 C 191.5,203.167 191.5,205.833 191.5,208.5C 190.348,209.625 189.348,209.625 188.5,208.5C 189.972,206.294 190.305,203.961 189.5,201.5C 190.167,201.167 190.833,200.833 191.5,200.5 Z"/></g>
<g><path style="opacity:1" fill="#b40304" d="M 108.5,200.5 C 109.497,200.47 110.164,200.97 110.5,202C 111.422,204.505 111.922,207.005 112,209.5C 110.149,206.936 108.316,206.936 106.5,209.5C 106.167,209.167 105.833,208.833 105.5,208.5C 106.513,205.812 107.513,203.146 108.5,200.5 Z"/></g>
<g><path style="opacity:1" fill="#de0000" d="M 147.5,201.5 C 148.946,200.387 150.613,200.22 152.5,201C 150.834,203.48 150.001,206.313 150,209.5C 150.053,206.325 149.22,203.658 147.5,201.5 Z"/></g>
<g><path style="opacity:1" fill="#120200" d="M 206.5,203.5 C 206.5,204.5 206.5,205.5 206.5,206.5C 204.296,209.098 202.629,208.598 201.5,205C 202.629,201.402 204.296,200.902 206.5,203.5 Z"/></g>
<g><path style="opacity:1" fill="#780001" d="M 209.5,200.5 C 209.194,203.385 209.527,206.052 210.5,208.5C 210.44,209.043 210.107,209.376 209.5,209.5C 208.824,208.398 208.158,207.398 207.5,206.5C 207.167,206.5 206.833,206.5 206.5,206.5C 206.5,205.5 206.5,204.5 206.5,203.5C 207.167,203.5 207.5,203.167 207.5,202.5C 208.167,201.833 208.833,201.167 209.5,200.5 Z"/></g>
<g><path style="opacity:1" fill="#e30000" d="M 241.5,200.5 C 242.473,202.948 242.806,205.615 242.5,208.5C 246.172,209.045 245.838,209.378 241.5,209.5C 241.5,206.5 241.5,203.5 241.5,200.5 Z"/></g>
<g><path style="opacity:1" fill="#b00001" d="M 57.5,201.5 C 59.2884,200.378 61.2884,200.211 63.5,201C 61.98,203.54 60.98,206.373 60.5,209.5C 60.0799,206.384 59.0799,203.717 57.5,201.5 Z"/></g>
<g><path style="opacity:1" fill="#ce0000" d="M 136.5,200.5 C 139.797,200.329 140.131,200.995 137.5,202.5C 138.711,203.874 139.711,205.374 140.5,207C 139.369,209.819 137.702,210.153 135.5,208C 137.095,208.617 138.428,208.284 139.5,207C 136.626,205.398 135.626,203.231 136.5,200.5 Z"/></g>
<g><path style="opacity:1" fill="#b70002" d="M 159.5,200.5 C 161.024,201.174 162.358,202.174 163.5,203.5C 164.719,202.737 165.719,201.737 166.5,200.5C 167.655,203.446 167.821,206.446 167,209.5C 166.667,207.5 166.333,205.5 166,203.5C 165.167,204.5 164.333,205.5 163.5,206.5C 162.808,205.975 162.308,205.308 162,204.5C 161.798,206.256 161.298,207.922 160.5,209.5C 159.516,206.572 159.183,203.572 159.5,200.5 Z"/></g>
<g><path style="opacity:1" fill="#b40002" d="M 189.5,201.5 C 190.305,203.961 189.972,206.294 188.5,208.5C 187.012,205.814 186.345,206.147 186.5,209.5C 184.334,209.421 182.334,208.754 180.5,207.5C 179.353,207.818 178.519,208.484 178,209.5C 177.896,206.303 178.729,203.303 180.5,200.5C 181.948,202.667 183.115,205 184,207.5C 184.497,205.19 184.663,202.857 184.5,200.5C 186.415,200.216 188.081,200.549 189.5,201.5 Z"/></g>
<g><path style="opacity:1" fill="#140100" d="M 186.5,201.5 C 188.465,201.948 188.798,202.948 187.5,204.5C 186.614,203.675 186.281,202.675 186.5,201.5 Z"/></g>
<g><path style="opacity:1" fill="#d50000" d="M 113.5,200.5 C 118.159,200.015 119.492,201.848 117.5,206C 116.552,206.483 115.552,206.649 114.5,206.5C 113.223,207.317 112.89,205.317 113.5,200.5 Z"/></g>
<g><path style="opacity:1" fill="#110000" d="M 114.5,201.5 C 118.31,202.754 118.31,203.754 114.5,204.5C 114.5,203.5 114.5,202.5 114.5,201.5 Z"/></g>
<g><path style="opacity:1" fill="#b80003" d="M 169.5,200.5 C 170.552,200.351 171.552,200.517 172.5,201C 171.328,201.419 170.328,202.085 169.5,203C 174.146,204.997 174.479,207.164 170.5,209.5C 169.833,209.167 169.167,208.833 168.5,208.5C 169.5,207.833 170.5,207.167 171.5,206.5C 168.61,205.163 167.943,203.163 169.5,200.5 Z"/></g>
<g><path style="opacity:1" fill="#280500" d="M 180.5,203.5 C 181.776,204.386 181.776,205.386 180.5,206.5C 179.438,205.575 179.438,204.575 180.5,203.5 Z"/></g>
<g><path style="opacity:1" fill="#e30000" d="M 191.5,200.5 C 197.167,200.664 197.5,200.997 192.5,201.5C 192.5,202.5 192.5,203.5 192.5,204.5C 196.5,204.833 196.5,205.167 192.5,205.5C 192.5,206.5 192.5,207.5 192.5,208.5C 197.139,209.371 196.806,209.371 191.5,208.5C 191.5,205.833 191.5,203.167 191.5,200.5 Z"/></g>
<g><path style="opacity:1" fill="#b70001" d="M 55.5,201.5 C 56.1667,201.5 56.8333,201.5 57.5,201.5C 57.6621,203.527 57.4955,205.527 57,207.5C 54.1598,210.371 51.8265,210.037 50,206.5C 49.7508,207.624 49.2508,208.624 48.5,209.5C 47.1387,207.972 45.972,206.305 45,204.5C 44.7978,206.256 44.2978,207.922 43.5,209.5C 42.1667,206.5 42.1667,203.5 43.5,200.5C 44.8613,202.028 46.028,203.695 47,205.5C 47.2022,203.744 47.7022,202.078 48.5,200.5C 49.2508,201.376 49.7508,202.376 50,203.5C 51.1729,200.59 53.0062,199.923 55.5,201.5 Z"/></g>
<g><path style="opacity:1" fill="#150300" d="M 55.5,201.5 C 57.2651,204.537 56.5985,206.87 53.5,208.5C 51.5539,206.956 51.0539,204.956 52,202.5C 53.0113,201.663 54.1779,201.33 55.5,201.5 Z"/></g>
<g><path style="opacity:1" fill="#c90001" d="M 69.5,200.5 C 70.3764,200.369 71.0431,200.702 71.5,201.5C 72.2357,203.541 73.0691,205.541 74,207.5C 75.3701,198.458 76.2035,198.791 76.5,208.5C 80.3599,208.903 80.1932,209.236 76,209.5C 74.0695,209.092 72.2362,208.425 70.5,207.5C 69.3527,207.818 68.5194,208.484 68,209.5C 68.1584,206.498 68.6584,203.498 69.5,200.5 Z"/></g>
<g><path style="opacity:1" fill="#310300" d="M 70.5,203.5 C 71.7759,204.386 71.7759,205.386 70.5,206.5C 69.4376,205.575 69.4376,204.575 70.5,203.5 Z"/></g>
<g><path style="opacity:1" fill="#910002" d="M 142.5,200.5 C 143.833,200.5 145.167,200.5 146.5,200.5C 146.817,203.572 146.484,206.572 145.5,209.5C 144.686,207.234 144.186,204.9 144,202.5C 143.86,205.043 143.194,207.377 142,209.5C 141.699,206.493 141.865,203.493 142.5,200.5 Z"/></g>
<g><path style="opacity:1" fill="#b20003" d="M 221.5,200.5 C 222.931,200.881 223.764,201.881 224,203.5C 225.605,200.726 227.772,200.06 230.5,201.5C 228.083,201.017 226.416,202.183 225.5,205C 225.645,205.772 225.978,206.439 226.5,207C 231.834,208.314 231.834,208.981 226.5,209C 225.299,208.097 224.465,206.931 224,205.5C 223.781,206.938 223.281,208.271 222.5,209.5C 221.516,206.572 221.183,203.572 221.5,200.5 Z"/></g>
<g><path style="opacity:1" fill="#b80002" d="M 88.5,200.5 C 90.4803,201.848 91.647,203.848 92,206.5C 92.0781,204.343 92.2448,202.343 92.5,200.5C 93.4255,201.641 94.2588,201.641 95,200.5C 94.0086,207.76 94.8419,208.093 97.5,201.5C 102.293,200.315 103.626,200.315 101.5,201.5C 101.36,203.124 102.027,204.29 103.5,205C 102.027,205.71 101.36,206.876 101.5,208.5C 102.552,208.351 103.552,208.517 104.5,209C 102.866,209.494 101.199,209.66 99.5,209.5C 99.6641,206.813 99.4974,204.146 99,201.5C 98.1034,204.292 96.9367,206.959 95.5,209.5C 94.4826,206.972 93.3159,206.972 92,209.5C 90.3364,206.673 89.1697,203.673 88.5,200.5 Z"/></g>
<g><path style="opacity:1" fill="#c20402" d="M 236.5,200.5 C 238.742,203.057 239.909,206.057 240,209.5C 238,206.833 236,206.833 234,209.5C 234.301,206.421 235.134,203.421 236.5,200.5 Z"/></g>
<g><path style="opacity:1" fill="#d60000" d="M 121.5,200.5 C 127.643,201.026 128.976,203.86 125.5,209C 120.504,209.664 118.67,207.498 120,202.5C 120.717,201.956 121.217,201.289 121.5,200.5 Z"/></g>
<g><path style="opacity:1" fill="#1b0300" d="M 122.5,201.5 C 127.289,203.2 127.622,205.533 123.5,208.5C 119.967,206.58 119.633,204.246 122.5,201.5 Z"/></g>
<g><path style="opacity:1" fill="#e40000" d="M 80.5,200.5 C 81.4731,202.948 81.8064,205.615 81.5,208.5C 85.1716,209.045 84.8383,209.378 80.5,209.5C 80.5,206.5 80.5,203.5 80.5,200.5 Z"/></g>
<g><path style="opacity:1" fill="#d40000" d="M 207.5,202.5 C 207.5,203.167 207.167,203.5 206.5,203.5C 204.296,200.902 202.629,201.402 201.5,205C 202.629,208.598 204.296,209.098 206.5,206.5C 206.833,206.5 207.167,206.5 207.5,206.5C 206.031,210.068 203.864,210.402 201,207.5C 199.67,202.502 201.504,200.336 206.5,201C 207.056,201.383 207.389,201.883 207.5,202.5 Z"/></g>
</svg>
